<svg width="379" height="414" viewBox="0 0 379 414" fill="none" xmlns="http://www.w3.org/2000/svg">
<path d="M202.149 1H209.297V0.5H213.944H214.284L214.409 0.816002L216.262 5.49782L215.797 5.68182L219.503 15.0455L219.967 14.8615L223.673 24.2251L223.208 24.4091L226.914 33.7727L227.379 33.5887L231.085 42.9524L230.62 43.1364L234.326 52.5L234.791 52.316L238.497 61.6796L238.032 61.8636L241.737 71.2273L242.202 71.0433L245.908 80.4069L245.443 80.5909L249.149 89.9546L249.614 89.7706L253.32 99.1342L252.855 99.3182L256.561 108.682L257.026 108.498L260.732 117.861L260.267 118.045L263.972 127.409L264.437 127.225L268.143 136.589L267.678 136.773L271.384 146.136L271.849 145.952L275.555 155.316L275.09 155.5L278.796 164.864L279.261 164.68L282.966 174.043L282.502 174.227L286.207 183.591L286.672 183.407L290.378 192.771L289.913 192.955L293.619 202.318L294.084 202.134L297.79 211.498L297.325 211.682L301.031 221.046L301.496 220.862L305.201 230.225L304.736 230.409L308.442 239.773L308.907 239.589L312.613 248.952L312.148 249.136L315.854 258.5L316.319 258.316L320.025 267.68L319.56 267.864L323.266 277.227L323.73 277.043L327.436 286.407L326.971 286.591L330.677 295.955L331.142 295.771L334.848 305.134L334.383 305.318L338.089 314.682L338.554 314.498L342.26 323.861L341.795 324.045L345.5 333.409L345.965 333.225L349.671 342.589L349.206 342.773L352.912 352.136L353.377 351.952L357.083 361.316L356.618 361.5L360.324 370.864L360.789 370.68L364.495 380.043L364.03 380.227L367.735 389.591L368.2 389.407L371.906 398.77L371.441 398.954L375.147 408.318L375.612 408.134L377.465 412.816L377.736 413.5H377H372.17V413H362.509V413.5H352.849V413H343.189V413.5H333.528V413H323.868V413.5H319.037H318.691L318.57 413.176L316.802 408.482L317.27 408.306L313.735 398.919L313.267 399.095L309.732 389.708L310.2 389.531L306.666 380.144L306.198 380.32L302.663 370.933L303.131 370.757L299.596 361.369L299.128 361.545L295.593 352.158L296.061 351.982L292.526 342.594L292.058 342.77L288.523 333.383L288.991 333.207L285.457 323.819L284.989 323.996L281.454 314.608L281.922 314.432L278.441 305.19H278.002L277.919 305.221L277.907 305.19H276.797V305.69H266.82V305.19H256.842V305.69H246.865V305.19H236.887V305.69H226.91V305.19H216.932V305.69H206.955V305.19H196.977V305.69H186.999V305.19H177.022V305.69H167.044V305.19H157.067V305.69H147.089V305.19H137.112V305.69H127.134V305.19H117.157V305.69H107.179V305.19H100.716L100.704 305.22L100.622 305.19H100.182L96.7087 314.432L97.1768 314.608L93.6493 323.995L93.1812 323.819L89.6537 333.207L90.1217 333.383L86.5942 342.77L86.1262 342.594L82.5987 351.982L83.0667 352.158L79.5392 361.545L79.0711 361.369L75.5436 370.757L76.0117 370.932L72.4842 380.32L72.0161 380.144L68.4886 389.531L68.9566 389.707L65.4291 399.095L64.9611 398.919L61.4336 408.306L61.9016 408.482L60.1378 413.176L60.016 413.5H59.6698H54.864V413H45.2523V413.5H35.6407V413H26.0291V413.5H16.4174V413H6.80581V413.5H2H1.26535L1.53486 412.817L3.38112 408.135L3.84627 408.318L7.53877 398.955L7.07364 398.771L10.7662 389.407L11.2313 389.591L14.9238 380.227L14.4587 380.044L18.1512 370.68L18.6163 370.864L22.3088 361.5L21.8437 361.317L25.5362 351.953L26.0014 352.136L29.6939 342.773L29.2287 342.589L32.9213 333.226L33.3864 333.409L37.0789 324.045L36.6138 323.862L40.3063 314.498L40.7714 314.682L44.4639 305.318L43.9988 305.135L47.6913 295.771L48.1565 295.955L51.849 286.591L51.3838 286.407L55.0764 277.044L55.5415 277.227L59.234 267.864L58.7689 267.68L62.4614 258.317L62.9265 258.5L66.619 249.136L66.1539 248.953L69.8464 239.589L70.3115 239.773L74.0041 230.409L73.5389 230.226L77.2314 220.862L77.6966 221.045L81.3891 211.682L80.924 211.498L84.6165 202.135L85.0816 202.318L88.7741 192.955L88.309 192.771L92.0015 183.408L92.4666 183.591L96.1591 174.227L95.694 174.044L99.3865 164.68L99.8517 164.864L103.544 155.5L103.079 155.317L106.772 145.953L107.237 146.136L110.929 136.773L110.464 136.589L114.157 127.226L114.622 127.409L118.314 118.046L117.849 117.862L121.542 108.498L122.007 108.682L125.699 99.3183L125.234 99.1348L128.927 89.7712L129.392 89.9546L133.084 80.591L132.619 80.4076L136.312 71.044L136.777 71.2274L140.469 61.8637L140.004 61.6803L143.697 52.3167L144.162 52.5001L147.854 43.1365L147.389 42.953L151.082 33.5894L151.547 33.7728L155.239 24.4092L154.774 24.2258L158.467 14.8621L158.932 15.0456L162.624 5.68193L162.159 5.49851L164.006 0.816574L164.13 0.5H164.471H169.118V1H176.266L176.254 0.5H176.766H178.412H181.413H187.707V1H190.708V0.5H197.001H200.002H201.649H202.161L202.149 1ZM117.516 260.481H127.134V259.981H137.112V260.481H147.089V259.981H157.067V260.481H167.044V259.981H177.022V260.481H187V259.981H196.977V260.481H206.955V259.981H216.932V260.481H226.91V259.981H236.887V260.481H246.865V259.981H256.842V260.481H261.072L260.245 258.284L260.713 258.107L257.178 248.72L256.71 248.896L253.175 239.509L253.643 239.333L250.108 229.945L249.64 230.121L246.105 220.734L246.573 220.558L243.038 211.17L242.571 211.346L239.036 201.959L239.504 201.783L235.969 192.395L235.501 192.572L231.966 183.184L232.434 183.008L228.899 173.62L228.431 173.797L224.896 164.409L225.364 164.233L221.829 154.846L221.362 155.022L217.827 145.634L218.295 145.458L214.76 136.071L214.292 136.247L210.757 126.86L211.225 126.683L207.69 117.296L207.222 117.472L203.687 108.085L204.155 107.909L200.62 98.5211L200.153 98.6973L196.618 89.3099L197.086 89.1337L193.551 79.7463L193.083 79.9225L189.548 70.5351L190.016 70.3589L189.219 68.2429L188.424 70.3588L188.892 70.5346L185.365 79.9221L184.897 79.7462L181.369 89.1336L181.837 89.3095L178.31 98.6969L177.842 98.521L174.314 107.908L174.782 108.084L171.255 117.472L170.787 117.296L167.259 126.683L167.727 126.859L164.2 136.247L163.732 136.071L160.204 145.458L160.672 145.634L157.145 155.021L156.677 154.846L153.149 164.233L153.617 164.409L150.09 173.796L149.621 173.62L146.094 183.008L146.562 183.184L143.035 192.571L142.566 192.395L139.039 201.783L139.507 201.959L135.979 211.346L135.511 211.17L131.984 220.558L132.452 220.734L128.924 230.121L128.456 229.945L124.929 239.333L125.397 239.508L121.869 248.896L121.401 248.72L117.874 258.107L118.342 258.283L117.516 260.481Z" stroke="#C4C4C4" stroke-dasharray="10 10"/>
</svg>
