<svg width="1054" height="1054" viewBox="0 0 1054 1054" fill="none" xmlns="http://www.w3.org/2000/svg">
<path d="M698.985 0L698.985 1054M414.973 0L414.973 1054M130.961 0L130.961 1054M1054 231.943L0 231.943M1054 515.955L0 515.955M840.991 0L840.991 1054M556.979 0L556.979 1054M272.967 0L272.967 1054M1054 373.949L0 373.949M1054 657.961L0 657.961M746.32 0L746.32 1054M462.308 0L462.308 1054M178.296 0L178.296 1054M1054 279.279L0 279.278M1054 563.29L0 563.29M888.326 0L888.326 1054M604.314 0L604.314 1054M320.302 0L320.302 1054M1054 421.285L0 421.284M1054 705.296L0 705.296M793.656 0L793.656 1054M509.644 0L509.644 1054M225.632 0L225.632 1054M1054 326.614L0 326.614M1054 610.626L0 610.626M935.662 0L935.662 1054M651.65 0L651.65 1054M367.638 0L367.638 1054M1054 468.62L0 468.62M1054 752.632L0 752.632" stroke="url(#paint0_radial_134_3350)" stroke-opacity="0.3"/>
<defs>
<radialGradient id="paint0_radial_134_3350" cx="0" cy="0" r="1" gradientUnits="userSpaceOnUse" gradientTransform="translate(527 527) rotate(90) scale(527)">
<stop stop-color="#C4C4C4"/>
<stop offset="1" stop-color="#5C5C5C" stop-opacity="0"/>
</radialGradient>
</defs>
</svg>
