<svg width="1246" height="825" viewBox="0 0 1246 825" fill="none" xmlns="http://www.w3.org/2000/svg">
<path d="M826.314 -213L826.314 1033M490.566 -213L490.566 1033M154.817 -213L154.817 1033M1246 61.1947L0 61.1946M1246 396.943L0 396.943M994.189 -213L994.188 1033M658.44 -213L658.44 1033M322.692 -213L322.692 1033M1246 229.069L0 229.069M1246 564.817L0 564.817M882.272 -213L882.272 1033M546.524 -213L546.524 1033M210.775 -213L210.775 1033M1246 117.153L0 117.153M1246 452.901L0 452.901M1050.15 -213L1050.15 1033M714.398 -213L714.398 1033M378.65 -213L378.65 1033M1246 285.027L0 285.027M1246 620.775L0 620.775M938.231 -213L938.23 1033M602.482 -213V1033M266.734 -213L266.733 1033M1246 173.111L0 173.111M1246 508.859L0 508.859M1106.1 -213L1106.1 1033M770.356 -213L770.356 1033M434.608 -213L434.608 1033M1246 340.985L0 340.985M1246 676.734L0 676.733" stroke="url(#paint0_diamond_134_3261)" stroke-opacity="0.25"/>
<defs>
<radialGradient id="paint0_diamond_134_3261" cx="0" cy="0" r="1" gradientUnits="userSpaceOnUse" gradientTransform="translate(623 410) rotate(90) scale(623)">
<stop stop-color="#7C7C7C"/>
<stop offset="1" stop-color="white"/>
</radialGradient>
</defs>
</svg>
