<svg width="696" height="696" viewBox="0 0 696 696" fill="none" xmlns="http://www.w3.org/2000/svg">
<path d="M461.569 0L461.569 696M274.024 0L274.024 696M86.479 0L86.479 696M696 153.162L0 153.162M696 340.707L0 340.707M555.341 0L555.341 696M367.796 0L367.796 696M180.251 0L180.251 696M696 246.934L0 246.934M696 434.479L0 434.479M492.826 0L492.826 696M305.281 0L305.281 696M117.737 0L117.736 696M696 184.419L0 184.419M696 371.964L0 371.964M586.599 0L586.599 696M399.054 0L399.054 696M211.509 0L211.509 696M696 278.192L0 278.192M696 465.737L0 465.736M524.084 0L524.084 696M336.539 0L336.539 696M148.994 0L148.994 696M696 215.677L0 215.677M696 403.222L0 403.222M617.856 0L617.856 696M430.311 0L430.311 696M242.766 0L242.766 696M696 309.449L0 309.449M696 496.994L0 496.994" stroke="url(#paint0_radial_134_3340)"/>
<defs>
<radialGradient id="paint0_radial_134_3340" cx="0" cy="0" r="1" gradientUnits="userSpaceOnUse" gradientTransform="translate(348 348) rotate(90) scale(348)">
<stop stop-color="#C4C4C4"/>
<stop offset="1" stop-color="#5C5C5C" stop-opacity="0"/>
</radialGradient>
</defs>
</svg>
