<svg width="25" height="25" viewBox="0 0 25 25" fill="none" xmlns="http://www.w3.org/2000/svg">
<path d="M17.6877 14.9073C17.3493 14.7089 16.9335 14.7131 16.5968 14.9131L14.8918 15.9289C14.5102 16.1564 14.0335 16.1298 13.6835 15.8564C13.0785 15.3839 12.1043 14.5889 11.2568 13.7414C10.4093 12.8939 9.61434 11.9198 9.14184 11.3148C8.8685 10.9648 8.84184 10.4881 9.06934 10.1064L10.0852 8.40144C10.286 8.06478 10.2877 7.64561 10.0893 7.30728L7.58767 3.03394C7.34517 2.62061 6.8635 2.41728 6.39767 2.53144C5.94517 2.64144 5.35767 2.90978 4.74184 3.52644C2.8135 5.45478 1.78934 8.70728 9.041 15.9589C16.2927 23.2106 19.5443 22.1873 21.4735 20.2581C22.091 19.6406 22.3585 19.0523 22.4693 18.5989C22.5818 18.1339 22.3818 17.6556 21.9693 17.4139C20.9393 16.8114 18.7177 15.5106 17.6877 14.9073Z" fill="black"/>
</svg>
