<svg width="25" height="25" viewBox="0 0 25 25" fill="none" xmlns="http://www.w3.org/2000/svg">
<g clip-path="url(#clip0_134_3278)">
<path d="M11.5385 2C10.4712 2 9.61538 2.85577 9.61538 3.92308H1.92308C0.855769 3.92308 0 4.77885 0 5.84615V21.2308C0 22.2885 0.855769 23.1538 1.92308 23.1538H23.0769C24.1346 23.1538 25 22.2885 25 21.2308V5.84615C25 4.77885 24.1346 3.92308 23.0769 3.92308H15.3846C15.3846 2.85577 14.5192 2 13.4615 2H11.5385ZM12.5094 7.12507C13.3555 7.12507 14.1064 7.49091 14.6353 8.06783C14.6738 8.11591 14.7114 8.15309 14.7498 8.20117C14.7498 8.21079 14.759 8.2216 14.7686 8.23122C14.9417 8.45237 15.0873 8.69253 15.1931 8.96176C15.2315 9.05792 15.2602 9.15482 15.2794 9.25098C15.3083 9.35675 15.3372 9.45132 15.3564 9.55709V9.60592C15.3757 9.74053 15.394 9.86546 15.394 10.0097C15.394 10.1443 15.3757 10.2695 15.3564 10.4041C15.3563 10.4053 15.3565 10.4066 15.3564 10.4078C15.3564 10.4256 15.356 10.444 15.3471 10.4529C15.3374 10.5587 15.3081 10.6629 15.2888 10.759C15.2819 10.7868 15.2732 10.811 15.2663 10.836C15.2719 10.8105 15.2787 10.7837 15.2851 10.759C15.2572 10.8629 15.2278 10.968 15.1893 11.067C15.208 11.0181 15.2244 10.9671 15.2419 10.9149C15.2247 10.9657 15.2076 11.0161 15.1931 11.067C15.0873 11.3266 14.9417 11.5576 14.7686 11.7788C14.7206 11.8365 14.674 11.9032 14.6259 11.9609C14.3963 12.2001 14.126 12.4008 13.8202 12.5638C13.8187 12.5646 13.818 12.5667 13.8165 12.5675C13.7203 12.6156 13.6161 12.6643 13.5104 12.7027C13.4719 12.722 13.423 12.7401 13.3845 12.7497C13.3186 12.7685 13.2623 12.7872 13.1967 12.806C13.1954 12.8064 13.1944 12.8075 13.193 12.8079C13.0872 12.8368 12.972 12.8563 12.8662 12.8755C12.752 12.885 12.6366 12.8941 12.5131 12.8943C12.7514 12.8941 12.9786 12.8627 13.1967 12.806C13.4155 12.7492 13.6236 12.6662 13.8202 12.5638C13.425 12.7667 12.9863 12.8924 12.5113 12.8924C12.3282 12.8922 12.149 12.8734 11.976 12.8398C11.9749 12.8396 11.9735 12.8401 11.9723 12.8398C11.7994 12.806 11.633 12.757 11.4727 12.6934C11.4722 12.6932 11.4714 12.6936 11.4709 12.6934C11.3211 12.6338 11.1792 12.5581 11.0427 12.4755C11.0355 12.4712 11.0273 12.4665 11.0201 12.4624H11.0164C10.8825 12.3795 10.7557 12.2849 10.637 12.1825C10.7496 12.2811 10.8692 12.3728 10.9957 12.453C10.925 12.408 10.8618 12.3627 10.8079 12.3178H10.7985C10.7425 12.2698 10.6875 12.2283 10.637 12.1825C10.6357 12.1814 10.6346 12.1799 10.6333 12.1788C10.6244 12.1706 10.6136 12.1629 10.6051 12.1544C10.5378 12.0967 10.4712 12.0393 10.4135 11.9816C10.2885 11.847 10.1829 11.711 10.0868 11.5572C9.99061 11.4225 9.91346 11.2788 9.85577 11.1346C9.83654 11.0865 9.81678 11.0383 9.79755 10.9806C9.74947 10.846 9.71184 10.7117 9.68299 10.5675C9.67338 10.5386 9.67383 10.5099 9.66421 10.4811C9.6546 10.433 9.64355 10.3939 9.64355 10.3459C9.64061 10.3429 9.64121 10.3378 9.6398 10.3346C9.63249 10.2741 9.62477 10.2149 9.62477 10.1543V10.1242V10.0097C9.62477 9.27892 9.90362 8.62605 10.3459 8.12605C10.4805 7.96259 10.6348 7.81723 10.8079 7.69223C11.1348 7.45185 11.5006 7.26983 11.9141 7.18329C12.1064 7.14483 12.3075 7.12507 12.5094 7.12507ZM11.0953 12.5074C11.2082 12.5729 11.3245 12.6324 11.4464 12.6821C11.4163 12.6716 11.3865 12.6596 11.3563 12.6445C11.3178 12.6349 11.2783 12.6152 11.2399 12.5863C11.2399 12.5863 11.2401 12.5959 11.2305 12.5863C11.1811 12.5617 11.1392 12.5349 11.0953 12.5074ZM11.499 12.7027C11.6444 12.7586 11.7938 12.8048 11.9497 12.8361C11.9352 12.8327 11.9192 12.8308 11.9047 12.8267H11.884C11.8648 12.8171 11.8356 12.8079 11.8164 12.8079C11.7779 12.7983 11.7497 12.7894 11.7112 12.7797C11.6433 12.7543 11.5688 12.7282 11.499 12.7027ZM11.9986 12.8436C12.1638 12.8738 12.3349 12.8942 12.5094 12.8943C12.3748 12.8943 12.2496 12.8854 12.115 12.8661C12.0724 12.8608 12.0369 12.8506 11.9986 12.8436ZM11.5479 14.8174H13.4709C13.5959 14.8174 13.7124 14.8263 13.8277 14.8456C13.9431 14.8648 14.0579 14.8843 14.1733 14.9132V14.9225C15.4233 15.2302 16.3555 16.3558 16.3555 17.702V19.2983H8.65385V17.702C8.65385 16.3462 9.58609 15.2302 10.8361 14.9225V14.9132C10.9515 14.8843 11.0681 14.8648 11.1835 14.8456C11.2989 14.8263 11.4229 14.8174 11.5479 14.8174Z" fill="black"/>
</g>
<defs>
<clipPath id="clip0_134_3278">
<rect width="25" height="25" fill="white"/>
</clipPath>
</defs>
</svg>
